Coordinates
version=1
nRows=22
nColumns=24
inDegrees=yes

Units are S.I. units (second, meters, Newtons, ...)
Angles are in degrees.

endheader
time	pelvis_tilt	pelvis_list	pelvis_rotation	pelvis_tx	pelvis_ty	pelvis_tz	hip_flexion_r	hip_adduction_r	hip_rotation_r	knee_angle_r	ankle_angle_r	subtalar_angle_r	mtp_angle_r	hip_flexion_l	hip_adduction_l	hip_rotation_l	knee_angle_l	ankle_angle_l	subtalar_angle_l	mtp_angle_l	lumbar_extension	lumbar_bending	lumbar_rotation
      1.84500000	      1.11098066	      0.58092572	     -0.80717551	      1.01374741	      0.88965065	      0.00146298	     -1.56642344	     -1.02557788	     -1.38189884	    -58.67853283	     -5.94093185	     -4.56985336	     50.06061779	     19.91919399	      4.17012660	     -2.87193304	    -23.45256937	     12.24527866	     -4.13475830	     26.38332545	    -12.83270180	     -4.99294655	     -2.20288360
      1.85000000	      1.21766876	      0.84874166	     -0.82091971	      1.02125068	      0.89077427	      0.00128072	     -0.53417261	     -1.28506089	     -1.32672654	    -60.26300366	     -5.76889116	     -5.38397965	     49.70755500	     19.20044583	      4.44599063	     -3.01901996	    -23.34188813	     12.76493372	     -3.85240692	     26.29140639	    -12.96425325	     -5.31970097	     -2.29346503
      1.85500000	      1.37363235	      1.05725083	     -0.79658633	      1.02873043	      0.89201807	      0.00109513	      0.42465314	     -1.47289779	     -1.30704458	    -61.75016675	     -5.10024735	     -5.75253692	     47.32489507	     18.40357716	      4.66346870	     -3.14823025	    -23.19607706	     13.45942451	     -3.29086931	     25.07881441	    -13.15284526	     -5.57457485	     -2.42723397
      1.86000000	      1.50095737	      1.23279111	     -0.84084957	      1.03617299	      0.89332358	      0.00095677	      1.42898801	     -1.62474902	     -1.23307647	    -63.12201247	     -4.49170937	     -6.34739663	     46.87837871	     17.57757009	      4.85193436	     -3.25015250	    -22.91108872	     13.89452805	     -3.13112833	     24.87663686	    -13.30318468	     -5.79557114	     -2.45410904
      1.86500000	      1.66892714	      1.37858508	     -0.90661502	      1.04363474	      0.89475259	      0.00089807	      2.37951299	     -1.74391973	     -1.15232612	    -64.38106507	     -3.70776272	     -6.71540121	     46.02184777	     16.66284242	      4.99197804	     -3.41826088	    -22.55224721	     14.38594204	     -2.76094890	     24.49685814	    -13.49103640	     -5.99035193	     -2.47559767
      1.87000000	      1.82926236	      1.47434723	     -0.84104384	      1.05110810	      0.89621655	      0.00063415	      3.29884886	     -1.83042893	     -1.24056230	    -65.50957016	     -2.73436218	     -6.89061622	     44.30561282	     15.74163850	      5.13555509	     -3.35106967	    -22.16040651	     14.88365028	     -2.41463975	     23.55382537	    -13.68363538	     -6.09801790	     -2.63139869
      1.87500000	      1.93139901	      1.54492662	     -0.85271092	      1.05854348	      0.89764630	      0.00049227	      4.29854626	     -1.88191821	     -1.25765828	    -66.53791243	     -1.85058622	     -7.23077488	     44.27229976	     14.84899854	      5.23278647	     -3.35627145	    -21.68352055	     15.18767946	     -2.25057181	     23.52689249	    -13.79519785	     -6.18990883	     -2.70993044
      1.88000000	      2.10364237	      1.59945496	     -0.91033635	      1.06603073	      0.89921698	      0.00044007	      5.20917506	     -1.91368650	     -1.24178036	    -67.44471998	     -0.87549714	     -7.44885937	     44.13509900	     13.83070282	      5.30137727	     -3.41898236	    -21.12219345	     15.49001369	     -2.03422016	     23.45532985	    -13.97843042	     -6.27417878	     -2.75115495
      1.88500000	      2.35274366	      1.55664707	     -0.96125031	      1.07346756	      0.90093559	      0.00042797	      6.00876918	     -1.82724932	     -1.24581384	    -68.21234526	      0.26092477	     -7.53422204	     42.71962888	     12.72099652	      5.26513902	     -3.46048176	    -20.55078579	     15.86847542	     -1.69336849	     22.73642985	    -14.25349613	     -6.25021277	     -2.74185994
      1.89000000	      2.45117144	      1.56956929	     -1.00447372	      1.08092046	      0.90239377	      0.00036348	      6.98811505	     -1.82629484	     -1.28398614	    -68.92466976	      1.27647110	     -7.66471559	     42.71464862	     11.76294906	      5.30679247	     -3.44053730	    -19.93747784	     16.10751370	     -1.60467943	     22.69547953	    -14.34778716	     -6.28091470	     -2.81587825
      1.89500000	      2.62219642	      1.54596320	     -1.06973654	      1.08840607	      0.90399388	      0.00035110	      7.85968244	     -1.78436807	     -1.31804836	    -69.49716939	      2.32233535	     -7.73907690	     42.62205543	     10.67858835	      5.30650700	     -3.44570831	    -19.23504909	     16.30124256	     -1.48941248	     22.61561878	    -14.52137348	     -6.27487803	     -2.84455872
      1.90000000	      2.86221561	      1.45331377	     -1.16915157	      1.09587898	      0.90570109	      0.00041135	      8.63215319	     -1.65394228	     -1.32725240	    -69.93454322	      3.38179457	     -7.75889654	     42.19353718	      9.50545808	      5.22759416	     -3.47105224	    -18.50742613	     16.49612557	     -1.36178751	     22.41692761	    -14.76731958	     -6.20049637	     -2.78815526
      1.90500000	      2.91920104	      1.36984900	     -1.17000754	      1.10328722	      0.90707405	      0.00035129	      9.60306276	     -1.55354411	     -1.46668457	    -70.30975988	      4.32959462	     -8.01073131	     42.19463345	      8.56729733	      5.17670626	     -3.33657689	    -17.83374883	     16.63987036	     -1.27628201	     22.40250238	    -14.81946725	     -6.11373472	     -2.86219043
      1.91000000	      3.24122710	      1.29450683	     -1.30346864	      1.11086411	      0.90885335	      0.00047955	     10.24051063	     -1.45476478	     -1.47536040	    -70.53313698	      5.38056821	     -7.87312760	     41.67319377	      7.23696439	      5.12053101	     -3.42269631	    -16.97130064	     16.72545811	     -1.20351591	     22.22091320	    -15.14354747	     -6.06673399	     -2.83792632
      1.91500000	      3.43250262	      1.21218726	     -1.37394353	      1.11837986	      0.91038734	      0.00052367	     11.00843579	     -1.36077267	     -1.56814417	    -70.67779934	      6.36550344	     -7.86887978	     41.16332949	      6.07119867	      5.06958104	     -3.38342120	    -16.14296145	     16.77799676	     -1.16131596	     22.08832859	    -15.32552602	     -5.99638528	     -2.86233252
      1.92000000	      3.60883544	      1.13111624	     -1.42819670	      1.12590469	      0.91184687	      0.00058779	     11.77597407	     -1.27036639	     -1.69490740	    -70.74065249	      7.32446145	     -7.90317754	     39.99662544	      4.90731593	      5.01455238	     -3.35685769	    -15.28612468	     16.83464923	     -1.00567766	     21.95347382	    -15.49283501	     -5.92777793	     -2.91239082
      1.92500000	      3.74358778	      1.05738931	     -1.49616341	      1.13339519	      0.91316475	      0.00062303	     12.57869666	     -1.19470604	     -1.80224765	    -70.71620413	      8.18537046	     -7.89753692	     39.97464180	      3.79711666	      4.98367454	     -3.26624786	    -14.42832290	     16.81443040	     -1.12436864	     21.92631872	    -15.61293310	     -5.86355847	     -2.96399580
      1.93000000	      3.94763974	      0.94203341	     -1.53597639	      1.14091589	      0.91455790	      0.00063815	     13.25575350	     -1.08514787	     -1.96340900	    -70.55566464	      8.97826356	     -7.91940632	     39.81228682	      2.58933192	      4.90417340	     -3.20208701	    -13.53222490	     16.76009141	     -1.12693984	     21.93701909	    -15.80821597	     -5.74823736	     -2.98914075
      1.93500000	      4.14014126	      0.83580202	     -1.59861694	      1.14846201	      0.91586137	      0.00072550	     13.92571169	     -0.97342337	     -2.09881414	    -70.31187108	      9.72604341	     -7.95012125	     39.57704818	      1.38123951	      4.83278426	     -3.15881598	    -12.61533067	     16.68701237	     -1.16209001	     21.97226359	    -15.98788987	     -5.65339430	     -3.02272183
      1.94000000	      4.31486956	      0.73970216	     -1.64487025	      1.15593842	      0.91704427	      0.00077887	     14.60005392	     -0.87864271	     -2.24774466	    -69.99440488	     10.43635083	     -7.98648883	     39.34798910	      0.20611816	      4.77416423	     -3.10309627	    -11.71099901	     16.60960292	     -1.21111664	     22.01897795	    -16.15508796	     -5.56378530	     -3.11219613
      1.94500000	      4.50258133	      0.62785083	     -1.70858389	      1.16349611	      0.91818390	      0.00089391	     15.22408882	     -0.75604520	     -2.38420108	    -69.58645672	     11.18123910	     -7.93835288	     37.93397293	     -1.00166278	      4.68912152	     -3.15141937	    -10.77608836	     16.46025625	     -1.10571509	     22.51034200	    -16.32811986	     -5.46388511	     -3.15548450
      1.95000000	      4.65839253	      0.52262999	     -1.71428729	      1.17097720	      0.91917598	      0.00087512	     15.85680254	     -0.66478382	     -2.57234094	    -69.08708255	     11.79293840	     -7.93080639	     37.87938069	     -2.15466120	      4.62696527	     -3.03510179	     -9.87024541	     16.33619509	     -1.26776841	     22.51481460	    -16.47495801	     -5.35139705	     -3.24601038
